<svg width="510" height="506" viewBox="0 0 510 506" fill="none" xmlns="http://www.w3.org/2000/svg">
<path d="M339 82.1367C339 126.319 303.183 162.137 259 162.137C214.817 162.137 179 126.319 179 82.1367C179 37.9539 214.817 2.13672 259 2.13672C303.183 2.13672 339 37.9539 339 82.1367Z" fill="#2EC284"/>
<path d="M161.23 83.8828C161.23 128.066 125.413 163.883 81.23 163.883C37.0472 163.883 1.22998 128.066 1.22998 83.8828C1.22998 39.7 37.0472 3.88281 81.23 3.88281C125.413 3.88281 161.23 39.7 161.23 83.8828Z" fill="#FFCF32"/>
<path d="M337 254.137C337 298.319 301.183 334.137 257 334.137C212.817 334.137 177 298.319 177 254.137C177 209.954 212.817 174.137 257 174.137C301.183 174.137 337 209.954 337 254.137Z" fill="#FFCF32"/>
<path d="M160 256.137C160 300.319 124.183 336.137 80 336.137C35.8172 336.137 0 300.319 0 256.137C0 211.954 35.8172 176.137 80 176.137C124.183 176.137 160 211.954 160 256.137Z" fill="#FFCF32"/>
<path d="M21.3652 132.918L130.26 24.0235L159.863 71.5L161.62 103.28C164.198 149.918 207.605 183.378 253.363 174V174L323.379 217.143L223.363 317L177.363 250.5V250.5C181.899 207.69 150.581 169.425 107.719 165.408L87.3628 163.5L21.3652 132.918Z" fill="#FFCF32"/>
<path d="M256.863 345.77C301.046 345.77 336.863 381.587 336.863 425.77C336.863 469.952 301.046 505.77 256.863 505.77C212.68 505.77 176.863 469.952 176.863 425.77C176.863 381.587 212.68 345.77 256.863 345.77Z" fill="#1C3873"/>
<path d="M427.117 170C471.299 170 507.117 205.817 507.117 250C507.117 294.183 471.299 330 427.117 330C382.934 330 347.117 294.183 347.117 250C347.117 205.817 382.934 170 427.117 170Z" fill="#1C3873"/>
<path d="M305.896 485.633L197.002 376.738L244.479 347.135L276.259 345.378C322.897 342.8 356.356 299.393 346.979 253.635V253.635L390.121 183.619L489.979 283.635L423.479 329.635V329.635C380.668 325.099 342.403 356.417 338.386 399.279L336.479 419.635L305.896 485.633Z" fill="#1C3873"/>
<path d="M509.726 80C509.726 124.183 473.908 160 429.726 160C385.543 160 349.726 124.183 349.726 80C349.726 35.8172 385.543 0 429.726 0C473.908 0 509.726 35.8172 509.726 80Z" fill="#116192"/>
<path d="M160.863 426C160.863 470.183 125.046 506 80.8628 506C36.68 506 0.862793 470.183 0.862793 426C0.862793 381.817 36.68 346 80.8628 346C125.046 346 160.863 381.817 160.863 426Z" fill="#E31E55"/>
<path d="M509.863 424C509.863 468.183 474.046 504 429.863 504C385.68 504 349.863 468.183 349.863 424C349.863 379.817 385.68 344 429.863 344C474.046 344 509.863 379.817 509.863 424Z" fill="#081C49"/>
<circle cx="258.863" cy="254" r="44" fill="#FFBD16"/>
<circle cx="251.5" cy="74.5" r="35.5" fill="#41EC94"/>
<circle cx="97.5" cy="448.5" r="35.5" fill="#F35084"/>
</svg>
